<svg width="326" height="300" xmlns="http://www.w3.org/2000/svg">
  <path fill="#739848" d="m79.674 216.937 5.301-1.687-.643-11.967-10.12 4.819.161 6.264-2.088 8.273zm-51.644 0-5.3-1.687.642-11.967 10.12 4.819-.16 6.264 2.087 8.273zm62.085 44.736 2.65 4.98 11.566-2.65-6.425-9.157-6.104 1.125-8.514-.563zm-33.01 23.935 3.052 4.738-5.863 9.397-6.506-9.477 3.374-5.301 2.65-8.112zm-39.436-23.935-2.57 4.98-11.646-2.65 6.426-9.157 6.184 1.125 8.433-.563z"/>
  <path fill="#6c6e74" d="M105.055 229.466a23.87 23.87 0 0 0-10.522-12.449 17.116 17.116 0 0 0-14.537-1.285c-1.928.723-3.775 1.928-5.301 3.373.562-1.686.883-3.453.883-5.3 0-10.201-9.798-18.554-21.765-18.554-11.968 0-21.766 8.353-21.766 18.553 0 1.767.32 3.615.883 5.301a16.582 16.582 0 0 0-5.3-3.373 17.116 17.116 0 0 0-14.538 1.285c-9.96 5.783-14.457 17.75-10.923 28.673a17.277 17.277 0 0 0 9.959 10.682c2.65.964 5.542 1.285 8.353.804-.482.401-.964.722-1.366 1.204-3.614 3.615-5.461 8.675-4.98 13.735 1.125 11.485 9.96 20.641 21.365 22.006.643.08 1.285.08 1.928.08 4.417.081 8.674-1.606 11.887-4.658a15.613 15.613 0 0 0 4.337-7.47c.723 2.812 2.249 5.382 4.337 7.47a17.06 17.06 0 0 0 13.895 4.578c5.542-.642 10.682-3.132 14.537-7.228 8.353-8.674 9.156-21.445 1.848-28.593-.402-.402-.884-.803-1.366-1.205 2.811.482 5.703.16 8.353-.803 9.799-3.614 14.056-15.662 9.799-26.826z"/>
  <path d="m82.004 256.935.401.16c1.687.643 3.213 1.687 4.498 2.892 3.133 3.132 4.739 7.55 4.257 11.967-1.044 10.28-8.915 18.473-19.116 19.919a14.749 14.749 0 0 1-12.288-3.936c-3.213-3.052-4.658-7.47-4.257-12.45l.08-.481h-3.453l.08.482c.482 4.9-1.044 9.317-4.257 12.449-3.212 3.132-7.47 4.417-12.288 3.936-10.2-1.446-18.152-9.638-19.116-19.92-.401-4.417 1.125-8.834 4.257-11.966 1.285-1.205 2.73-2.169 4.337-2.811l.402-.161-1.044-3.373-.482.16a14.338 14.338 0 0 1-11.084.402c-4.096-1.687-7.309-5.06-8.674-9.317a21.496 21.496 0 0 1 .401-14.698c3.052-7.951 9.96-13.333 17.188-13.333 1.687 0 3.374.322 4.9.884a14.276 14.276 0 0 1 7.389 6.506l.24.401 3.053-2.008-.321-.401c-1.848-2.49-2.892-5.462-2.892-8.514 0-8.996 8.755-16.224 19.517-16.224 10.763 0 19.517 7.309 19.517 16.224 0 3.132-1.044 6.104-2.971 8.594l-.322.401 3.133 2.33.24-.482a14.59 14.59 0 0 1 7.47-6.747c1.606-.562 3.213-.883 4.9-.883 7.228 0 14.135 5.38 17.187 13.332 3.856 10.04.08 20.802-8.272 24.015-3.615 1.366-7.71 1.205-11.164-.482l-.482-.16z" fill="#fff"/>
  <path fill="#739848" d="m70.117 239.425 6.827-1.204-5.622 4.096s-3.534-.16-4.82.401c0 0 3.053-2.329 3.615-3.293zm-4.418 20.16 2.33 6.506-4.98-4.82s-.402-3.533-1.205-4.658c0 0 2.731 2.57 3.855 2.972zm-23.452 0-2.33 6.506 4.98-4.82s.402-3.533 1.205-4.658c0 0-2.73 2.57-3.855 2.972zm-4.418-20.16-6.827-1.204 5.623 4.096s3.534-.16 4.819.401c-.08 0-3.052-2.329-3.615-3.293zm17.75-10.682-1.606-6.746-1.606 6.827s1.606 3.132 1.606 4.578c0 0 .884-3.695 1.606-4.659z"/>
  <path d="M76.542 246.815c-.723-2.169-2.329-3.936-4.498-4.74-.883-.32-1.927-.481-2.89-.481a7.519 7.519 0 0 0 2.168-6.104c-.482-5.06-4.418-9.156-9.478-9.718-2.249-.241-4.578.481-6.265 2.007-.722.723-1.285 1.607-1.686 2.57-.402-.963-.964-1.847-1.687-2.57-1.687-1.526-3.935-2.329-6.184-2.007-5.06.642-8.996 4.658-9.478 9.718a7.519 7.519 0 0 0 2.169 6.104c-.964-.08-2.008.08-2.892.482-2.088.803-3.774 2.57-4.497 4.739-.803 2.329-.723 4.899.16 7.228 1.928 4.98 6.908 7.71 11.164 6.104a5.778 5.778 0 0 0 1.687-.964c-.08.482-.16 1.045-.16 1.527 0 4.578 4.337 8.272 9.638 8.272 5.3 0 9.638-3.694 9.638-8.272 0-.482-.08-1.045-.161-1.527.482.402 1.124.723 1.687.964 4.256 1.607 9.236-1.124 11.164-6.104 1.124-2.329 1.204-4.819.401-7.228zm-14.136 8.754-1.767 1.205.322.402a5.702 5.702 0 0 1 1.204 3.534c0 3.694-3.694 6.746-8.112 6.746-4.417 0-8.112-3.052-8.112-6.746 0-1.286.482-2.49 1.205-3.534l.241-.402-1.847-1.365-.241.481c-.643 1.286-1.767 2.25-3.052 2.812-.643.24-1.366.401-2.008.401-3.052 0-5.944-2.249-7.148-5.622-.804-1.928-.804-4.096-.161-6.104.562-1.767 1.847-3.213 3.614-3.855a5.875 5.875 0 0 1 4.659.24l.482.161.722-2.008-.401-.16c-.723-.241-1.285-.643-1.847-1.205-1.285-1.285-1.928-3.132-1.767-4.98.401-4.337 3.775-7.79 8.031-8.353 3.213-.562 6.345 1.687 6.827 4.9a7.13 7.13 0 0 1 0 1.847l-.08.482h2.088l-.08-.482c-.482-3.293 1.767-6.265 5.06-6.747a6.51 6.51 0 0 1 1.767 0 9.308 9.308 0 0 1 8.032 8.353c.16 1.848-.482 3.615-1.767 4.98-.482.482-1.125.883-1.767 1.205l-.402.16.643 2.008.481-.16a6.022 6.022 0 0 1 4.579-.161c1.686.723 3.052 2.088 3.614 3.855.642 2.008.562 4.177-.241 6.185-1.285 3.373-4.177 5.622-7.148 5.622-.723 0-1.366-.16-2.008-.402-1.285-.482-2.41-1.445-3.052-2.65z" fill="#6c6e74"/>
  <circle cx="53.893" cy="246.654" r="7.871" fill="#f8b133"/>
  <path d="M81.522 140.475c-.964 0-1.847-.402-2.57-1.044-.643-.643-1.044-1.526-1.044-2.41V99.995L55.98 56.704c-.16-.16-.24-.402-.24-.643V55.5c-.081-1.365.963-2.49 2.328-2.65h8.273c.803-.08 1.687.16 2.33.642.883.884 1.606 2.008 2.087 3.133l14.698 28.432 14.86-28.352a9.316 9.316 0 0 1 2.087-3.132c.723-.482 1.526-.723 2.33-.643h7.951a2.45 2.45 0 0 1 2.73 2.169v.963c0 .241-.08.482-.24.643l-21.846 43.29v37.027c0 .884-.402 1.767-1.045 2.41-.642.722-1.606 1.044-2.57 1.044zM16.465 75.578c0 1.205.241 2.41.643 3.454.481 1.044 1.124 2.008 2.007 2.811a24.832 24.832 0 0 0 3.133 2.65c1.205.884 2.65 1.768 4.176 2.812L40.64 96.3c3.615 2.169 6.747 5.14 8.996 8.755 2.008 3.213 2.972 7.63 2.972 13.011.08 3.614-.643 7.148-2.008 10.522-1.285 2.891-3.213 5.542-5.542 7.71a23.788 23.788 0 0 1-8.353 4.659c-3.373 1.044-6.907 1.606-10.522 1.526-3.453 0-6.907-.482-10.2-1.526-3.052-.964-5.863-2.57-8.273-4.659-2.41-2.088-4.256-4.738-5.541-7.63C.723 125.375.08 121.841.16 118.227v-5.462c0-.883.401-1.767 1.044-2.41.642-.722 1.606-1.043 2.57-1.043h8.192c.964 0 1.848.401 2.57 1.044.643.642 1.045 1.526 1.045 2.41v5.46c0 1.527.24 3.053.803 4.418.482 1.366 1.285 2.57 2.249 3.615a10.004 10.004 0 0 0 3.373 2.41c1.365.561 2.811.883 4.337.883 3.373 0 6.104-.964 8.112-2.812 2.008-1.847 3.052-4.417 3.052-7.71v-1.847a8.801 8.801 0 0 0-2.249-6.185 42.293 42.293 0 0 0-5.461-4.578L11.244 93.971a20.087 20.087 0 0 1-7.308-8.433c-1.526-3.293-2.33-6.827-2.33-10.441 0-7.63 2.25-13.574 6.667-17.83 4.417-4.258 10.521-6.346 18.312-6.346 3.454-.08 6.827.482 10.12 1.526 2.891.964 5.622 2.49 7.871 4.578 2.249 2.088 3.936 4.659 5.06 7.55 1.285 3.373 1.847 6.907 1.767 10.441v2.25c0 .883-.402 1.766-1.044 2.409-.643.722-1.606 1.044-2.49 1.044h-7.71c-.964 0-1.848-.402-2.57-1.044-.643-.643-1.045-1.526-1.045-2.41v-2.249c.08-2.81-.723-5.622-2.41-7.951-1.606-2.169-4.176-3.293-7.63-3.293-3.453 0-6.023.964-7.55 2.972-1.605 2.248-2.489 4.899-2.328 7.63v1.204zm291.632-40.961a1.33 1.33 0 0 1-.964-.402 1.33 1.33 0 0 1-.402-.964V2.17c0-.322.16-.723.402-.964a1.48 1.48 0 0 1 .964-.402h14.698c.32 0 .723.16.963.402.241.24.402.642.402.964v2.329c0 .401-.16.723-.402.964a1.33 1.33 0 0 1-.963.401h-10.2v8.433h8.754c.321 0 .723.161.964.402.24.241.401.643.401.964v2.249c0 .401-.16.723-.401.964a1.33 1.33 0 0 1-.964.401h-8.835v10.28h10.441c.322 0 .723.161.964.402.241.241.402.643.402.964v2.249c0 .402-.16.723-.402.964a1.33 1.33 0 0 1-.964.401zm-20.32-14.457v13.172c0 .32-.161.722-.402.963a1.482 1.482 0 0 1-.964.402h-3.132a1.33 1.33 0 0 1-.964-.402 1.33 1.33 0 0 1-.402-.963V2.169c0-.322.16-.723.402-.964a1.48 1.48 0 0 1 .964-.402h11.967c.883 0 1.687.16 2.49.482.723.321 1.365.803 1.927 1.365.563.563.964 1.286 1.205 2.008.321.723.402 1.526.402 2.41v4.739c0 .722-.08 1.445-.241 2.168-.16.643-.322 1.205-.723 1.767-.321.482-.723.964-1.285 1.285a5.466 5.466 0 0 1-1.928.643c.803.08 1.607.321 2.33.723.562.401 1.124.883 1.445 1.526.402.642.643 1.365.723 2.088.16.803.16 1.526.16 2.33v9.075c0 .321-.16.723-.401.964a1.482 1.482 0 0 1-.964.401h-3.132a1.33 1.33 0 0 1-.964-.401 1.33 1.33 0 0 1-.402-.964v-10.12c0-.884-.32-1.687-.963-2.249a3.659 3.659 0 0 0-2.33-.883zm8.111-11.405c0-.804-.24-1.607-.883-2.25a3.5 3.5 0 0 0-2.33-.883h-4.899v9.558h4.98c.884.08 1.687-.241 2.33-.884a3.5 3.5 0 0 0 .883-2.329V8.755Zm-25.22-6.586c0-.322.161-.723.402-.964.241-.241.643-.402.964-.402h3.133c.401 0 .722.16.963.402.241.24.402.562.402.964v31.163c0 .32-.16.722-.402.963a1.482 1.482 0 0 1-.963.402h-3.133a1.33 1.33 0 0 1-.964-.402 1.33 1.33 0 0 1-.401-.963zm-11.324 12.368V2.17c0-.322.16-.723.402-.964a1.48 1.48 0 0 1 .964-.402h3.132c.401 0 .723.16.964.402.24.24.401.562.401.964v31.163c0 .32-.16.722-.401.963a1.482 1.482 0 0 1-.964.402h-3.132a1.33 1.33 0 0 1-.964-.402 1.33 1.33 0 0 1-.402-.963V19.597h-8.754v13.735c0 .32-.161.722-.402.963a1.482 1.482 0 0 1-.964.402h-3.132a1.33 1.33 0 0 1-.964-.402 1.33 1.33 0 0 1-.402-.963V2.169c0-.322.161-.723.402-.964.24-.241.643-.402.964-.402h3.132c.402 0 .723.16.964.402.24.24.402.562.402.964v12.368Zm-32.689-4.899c0 .482.08.884.241 1.365.16.402.482.804.803 1.125.402.401.803.723 1.205 1.044.482.321 1.044.723 1.606 1.044l5.462 3.454c1.365.803 2.57 2.008 3.453 3.373a9.962 9.962 0 0 1 1.125 5.06c0 1.365-.241 2.811-.803 4.016-.482 1.124-1.205 2.169-2.169 2.972-.964.803-2.008 1.445-3.213 1.767-1.285.401-2.65.642-4.015.562-1.366 0-2.65-.16-3.936-.562-1.205-.402-2.249-.964-3.213-1.767-.963-.803-1.686-1.848-2.168-2.972-.562-1.285-.803-2.65-.803-4.016v-2.088c0-.321.16-.723.401-.964.241-.24.643-.402.964-.402h3.132c.402 0 .723.161.964.402.241.241.402.562.402.964v2.088c0 .562.08 1.205.321 1.687.16.482.482.964.884 1.445.401.402.803.723 1.285.964.562.241 1.124.322 1.686.322 1.125.08 2.33-.322 3.133-1.045.803-.803 1.204-1.847 1.204-2.971v-.723a3.025 3.025 0 0 0-.883-2.41c-.643-.642-1.365-1.285-2.088-1.767l-7.149-4.819a8.031 8.031 0 0 1-2.81-3.293c-.563-1.285-.884-2.65-.884-4.016 0-2.971.883-5.22 2.57-6.907C225.049.964 227.458.08 230.43.08c1.365 0 2.65.161 3.935.563 1.125.401 2.169.963 3.053 1.767.883.803 1.526 1.847 1.927 2.89.482 1.286.723 2.651.723 4.017v.883c0 .322-.16.723-.402.964a1.482 1.482 0 0 1-.963.402h-2.972a1.33 1.33 0 0 1-.964-.402 1.33 1.33 0 0 1-.402-.964v-.883a5.656 5.656 0 0 0-.883-3.052 3.543 3.543 0 0 0-2.972-1.285c-1.124-.08-2.168.32-2.891 1.124-.643.884-.964 1.928-.884 2.972zm-15.662 6.506 8.433 16.625c.08.161.08.241.08.402v.321c0 .723-.481 1.125-1.365 1.125h-3.453a1.33 1.33 0 0 1-.964-.402c-.321-.24-.482-.562-.643-.964l-7.71-15.1v15.1c0 .322-.16.723-.402.964a1.482 1.482 0 0 1-.963.402h-3.133a1.33 1.33 0 0 1-.964-.402 1.33 1.33 0 0 1-.401-.964V2.17c0-.322.16-.723.401-.964.241-.241.643-.402.964-.402h3.133c.401 0 .722.16.963.402.241.24.402.562.402.964v12.61l6.988-12.61c.16-.322.401-.643.642-.964.241-.241.562-.402.884-.402h3.212c.322 0 .643.08.964.16.321.081.482.402.482.643 0 .322-.08.723-.321.964zm-30.44 4.016v13.172c0 .32-.16.642-.402.883a1.482 1.482 0 0 1-.963.402h-3.133a1.33 1.33 0 0 1-.964-.402 1.33 1.33 0 0 1-.401-.964V2.17c0-.322.16-.723.401-.964.241-.241.643-.402.964-.402h11.887c.884 0 1.687.16 2.49.482.723.321 1.365.803 1.928 1.365.562.563.963 1.286 1.204 2.008.322.723.402 1.526.402 2.41v4.739c0 .722-.08 1.445-.241 2.168-.16.643-.321 1.205-.643 1.767-.32.482-.722.964-1.285 1.285a5.466 5.466 0 0 1-1.927.643c.803.08 1.606.321 2.329.723a4.62 4.62 0 0 1 1.526 1.526c.402.642.643 1.365.723 2.088.16.803.16 1.526.16 2.33v9.075c0 .321-.16.642-.481.883a1.482 1.482 0 0 1-.964.402h-3.133a1.33 1.33 0 0 1-.963-.402 1.33 1.33 0 0 1-.402-.963v-10.04c0-.884-.321-1.687-.964-2.249a3.659 3.659 0 0 0-2.329-.883zm8.112-11.405c0-.804-.24-1.607-.883-2.25a3.5 3.5 0 0 0-2.33-.883h-4.98v9.558h4.98c.884.08 1.687-.241 2.33-.884a3.5 3.5 0 0 0 .883-2.329zM159.911 35.42c-1.365 0-2.65-.16-3.935-.643-1.205-.401-2.249-.963-3.213-1.767a8.351 8.351 0 0 1-2.088-2.891 8.704 8.704 0 0 1-.723-4.016V9.397c0-1.365.241-2.73.723-4.016a8.351 8.351 0 0 1 2.088-2.891c.964-.803 2.008-1.366 3.213-1.767a13.421 13.421 0 0 1 7.951 0c1.205.401 2.25.964 3.213 1.767a8.351 8.351 0 0 1 2.088 2.891 8.704 8.704 0 0 1 .723 4.016v16.786c0 1.366-.24 2.731-.723 4.016a8.351 8.351 0 0 1-2.088 2.892c-.964.803-2.008 1.445-3.213 1.767a13.87 13.87 0 0 1-4.016.562zm0-5.06c1.125.08 2.25-.402 3.133-1.205.723-.803 1.124-1.927 1.124-3.052V9.397a3.928 3.928 0 0 0-1.124-3.052 4.57 4.57 0 0 0-6.185 0c-.722.803-1.124 1.928-1.124 3.052v16.786a3.928 3.928 0 0 0 1.124 3.052c.804.723 1.928 1.205 3.052 1.125zm-24.818 4.257a1.33 1.33 0 0 1-.963-.402 1.33 1.33 0 0 1-.402-.964V19.035L125.295 2.33c-.08-.08-.08-.16-.08-.24v-.242c0-.24.08-.482.24-.723.241-.24.482-.32.804-.32h3.052c.32 0 .642.08.883.24.321.321.643.803.803 1.205l5.703 11.003 5.702-11.003c.161-.482.482-.884.804-1.205.24-.16.562-.321.883-.24h3.052c.562-.081.964.32 1.044.883v.401c0 .08 0 .16-.08.241l-8.433 16.626V33.25c0 .322-.161.643-.402.884a1.482 1.482 0 0 1-.964.401zm-26.103-20.08V2.17c0-.322.161-.723.402-.964.24-.241.643-.402.964-.402h3.132c.402 0 .723.16.964.402.24.24.402.562.402.964v31.163c0 .32-.161.722-.402.963a1.482 1.482 0 0 1-.964.402h-3.132a1.33 1.33 0 0 1-.964-.402 1.33 1.33 0 0 1-.402-.963V19.597h-8.754v13.735c0 .32-.16.642-.402.883a1.482 1.482 0 0 1-.964.402h-3.132a1.33 1.33 0 0 1-.964-.402 1.33 1.33 0 0 1-.401-.964V2.17c0-.322.16-.723.401-.964.241-.241.643-.402.964-.402h3.132c.402 0 .723.16.964.402.241.24.402.562.402.964v12.368ZM89.714.803c.322 0 .723.16.884.402.24.24.401.642.401.964v2.329c0 .401-.16.723-.401.964-.241.24-.562.401-.884.401h-5.461v27.469c0 .32-.16.722-.402.963a1.482 1.482 0 0 1-.964.402h-3.132a1.33 1.33 0 0 1-.964-.402 1.33 1.33 0 0 1-.401-.963V5.863h-5.462c-.321 0-.723-.16-.964-.401a1.482 1.482 0 0 1-.401-.964v-2.25c0-.4.16-.722.401-.963a1.33 1.33 0 0 1 .964-.402h16.786ZM62.728 2.17c0-.322.16-.723.401-.964.241-.241.643-.402.964-.402h3.052c.402 0 .723.16.964.402.24.24.402.562.402.964v23.934c0 1.365-.241 2.73-.804 4.016a7.638 7.638 0 0 1-2.168 2.891c-.964.804-2.008 1.446-3.213 1.767-2.57.804-5.3.804-7.871 0-1.205-.401-2.249-.963-3.213-1.767-.883-.803-1.606-1.847-2.008-2.971a8.704 8.704 0 0 1-.722-4.016V2.169c0-.322.16-.723.401-.964.241-.241.643-.402.964-.402h3.052c.402 0 .723.16.964.402.24.24.401.562.401.964v23.934a3.927 3.927 0 0 0 1.125 3.052 4.57 4.57 0 0 0 6.184 0 3.928 3.928 0 0 0 1.125-3.052zM33.814 35.42c-1.366 0-2.65-.16-3.936-.642-1.124-.401-2.249-.963-3.132-1.767a8.351 8.351 0 0 1-2.089-2.891c-.562-1.285-.803-2.65-.803-4.016V9.397c0-1.365.241-2.73.803-4.016a8.351 8.351 0 0 1 2.089-2.891A10.136 10.136 0 0 1 29.878.723a13.421 13.421 0 0 1 7.951 0c1.205.401 2.25.964 3.213 1.767a8.351 8.351 0 0 1 2.088 2.89c.563 1.285.803 2.65.803 4.016v16.786c0 1.366-.24 2.731-.803 4.016a8.351 8.351 0 0 1-2.088 2.892c-.964.803-2.008 1.365-3.213 1.767-1.365.401-2.65.562-4.015.562zm0-5.06c1.124.081 2.248-.4 3.132-1.204a4.176 4.176 0 0 0 1.044-3.052V9.397a3.927 3.927 0 0 0-1.124-3.052 4.57 4.57 0 0 0-6.185 0c-.723.803-1.124 1.928-1.124 3.052v16.786c0 1.125.401 2.25 1.204 3.052.804.723 1.928 1.205 3.053 1.125zM6.425 9.64c0 .481.08.883.241 1.284.241.402.482.803.803 1.125.402.401.804.722 1.205 1.044.482.321 1.044.723 1.607 1.044l5.461 3.453c1.366.804 2.57 2.008 3.454 3.374a9.962 9.962 0 0 1 1.124 5.06c0 1.365-.24 2.81-.803 4.016-.482 1.124-1.205 2.168-2.168 2.971-.964.804-2.008 1.446-3.213 1.767-1.285.402-2.65.643-4.016.563-1.365 0-2.65-.161-3.936-.563-1.204-.401-2.248-.963-3.212-1.767-.884-.803-1.687-1.847-2.169-2.971C.241 28.754 0 27.389 0 26.023v-2.088c0-.322.16-.723.402-.964.24-.241.642-.402.963-.402h3.133c.401 0 .723.16.964.402.24.24.401.562.401.964v2.088c0 .562.16 1.205.402 1.686.16.482.482.964.883 1.446.402.402.803.723 1.285.964.563.24 1.125.321 1.687.321 1.124.08 2.249-.321 3.132-1.044.804-.803 1.205-1.847 1.205-2.972v-.723a3.025 3.025 0 0 0-.883-2.409c-.643-.643-1.366-1.205-2.169-1.767l-7.148-4.819a8.031 8.031 0 0 1-2.811-3.293c-.563-1.285-.884-2.65-.884-4.016 0-2.972.884-5.3 2.57-6.907C4.82.883 7.23 0 10.2 0c1.366 0 2.65.16 3.936.562 1.124.402 2.168.964 3.052 1.767.883.803 1.526 1.847 1.927 2.892.482 1.285.723 2.65.723 4.015v.884c0 .321-.16.723-.401.964a1.482 1.482 0 0 1-.964.401H15.5a1.33 1.33 0 0 1-.964-.401 1.33 1.33 0 0 1-.401-.964v-.884c0-1.124-.321-2.168-.964-3.052A3.449 3.449 0 0 0 10.2 4.9c-1.124-.08-2.168.322-2.891 1.125-.643.883-.964 1.927-.884 2.972Z" fill="#6c6e74"/>
  <path d="M303.358 52.849c.642 0 1.365.16 1.847.642.482.402.884.964.964 1.607l18.634 80.718c.16.402.24.884.32 1.366 0 .401.081.642.081.723 0 .642-.24 1.285-.723 1.767-.482.562-1.204.803-2.008.803h-9.156c-.723 0-1.365-.241-1.767-.803-.482-.563-.803-1.205-.883-1.928l-3.695-15.582h-23.774l-3.694 15.582a5.293 5.293 0 0 1-.884 1.928 2.278 2.278 0 0 1-1.767.803h-9.156c-.723 0-1.446-.241-2.008-.803a2.492 2.492 0 0 1-.723-1.767c0-.08 0-.322.08-.723a8.4 8.4 0 0 1 .322-1.366l18.553-80.718c.16-.643.482-1.205.964-1.607.562-.401 1.205-.642 1.847-.642zm-8.273 15.42-8.995 41.043h18.071zm-48.592 6.828c.08-2.892-.883-5.703-2.81-7.872a9.602 9.602 0 0 0-7.55-3.052c-2.892-.16-5.623 1.045-7.55 3.133-1.928 2.168-2.972 4.98-2.811 7.87v43.292a11.646 11.646 0 0 0 2.81 7.951c4.177 4.177 10.924 4.096 15.1-.08 1.928-2.169 2.972-4.98 2.811-7.871v-1.607c0-.883.402-1.766 1.044-2.409.643-.723 1.607-1.044 2.49-1.044h7.952c.964 0 1.847.401 2.57 1.044.642.643 1.044 1.526 1.044 2.41v1.606c.08 3.534-.643 7.068-2.008 10.36a20.275 20.275 0 0 1-5.461 7.55c-2.41 2.089-5.14 3.615-8.113 4.659-6.425 2.169-13.412 2.169-19.918 0-2.972-1.044-5.703-2.57-8.112-4.658-2.33-2.089-4.177-4.659-5.462-7.55a25.162 25.162 0 0 1-1.927-10.28V75.256c-.08-3.534.642-7.068 2.008-10.28a20.274 20.274 0 0 1 5.461-7.55c2.41-2.088 5.14-3.614 8.112-4.659 6.426-2.168 13.413-2.168 19.919 0 2.972.964 5.702 2.57 8.112 4.659 2.329 2.088 4.176 4.658 5.461 7.55 1.366 3.293 2.008 6.746 2.008 10.28v1.607c0 .883-.401 1.767-1.044 2.409-.642.643-1.606 1.044-2.57 1.044h-7.951a3.524 3.524 0 0 1-2.49-1.044c-.643-.642-1.044-1.526-1.044-2.41zm-85.136 65.378c-.883 0-1.767-.322-2.41-1.044-.642-.643-1.043-1.526-1.204-2.41l-15.1-66.743v66.743c0 .884-.401 1.767-1.044 2.41-.642.722-1.606 1.044-2.57 1.044h-6.666c-.964 0-1.848-.402-2.57-1.044-.643-.643-1.045-1.526-1.045-2.41V56.302c0-.883.402-1.767 1.045-2.41.642-.722 1.606-1.043 2.57-1.043h15.822c.884 0 1.767.321 2.41 1.044.642.642 1.044 1.526 1.204 2.41l11.727 53.41 11.806-53.41c.161-.884.563-1.768 1.205-2.41.643-.723 1.526-1.044 2.41-1.044h15.822c.964 0 1.847.401 2.49 1.044.642.642 1.044 1.526 1.044 2.41v80.718c0 .884-.402 1.767-1.044 2.41-.643.722-1.606 1.044-2.49 1.044h-6.666a3.524 3.524 0 0 1-2.49-1.044c-.643-.643-1.044-1.526-1.044-2.41V70.278l-15.18 66.743c-.16.884-.562 1.767-1.205 2.41-.642.722-1.526 1.044-2.41 1.044zm150.675 158.787a1.33 1.33 0 0 1-.964-.402 1.33 1.33 0 0 1-.401-.964V283.6l-8.434-16.706c-.08-.08-.08-.16-.08-.241v-.241c0-.24.08-.482.241-.723.241-.24.482-.321.803-.321h3.052c.322 0 .643.08.884.24.321.322.642.804.803 1.206l5.703 11.003 5.702-11.003c.16-.482.482-.884.803-1.205.241-.16.562-.241.884-.241h3.052c.482-.08.964.321 1.044.883v.402c0 .08 0 .16-.08.24L316.61 283.6v14.296c0 .322-.16.723-.401.964a1.482 1.482 0 0 1-.964.402zm-11.967-33.814c.321 0 .723.16.964.402.24.24.401.642.401.964v2.248c0 .402-.16.723-.401.964a1.33 1.33 0 0 1-.964.402h-5.462v27.468c0 .322-.16.723-.401.964a1.482 1.482 0 0 1-.964.402h-3.052a1.33 1.33 0 0 1-.964-.402 1.33 1.33 0 0 1-.401-.964v-27.468h-5.462c-.321 0-.723-.16-.964-.402a1.482 1.482 0 0 1-.401-.964v-2.248c0-.402.16-.723.401-.964a1.33 1.33 0 0 1 .964-.402zm-26.746 1.285c0-.321.161-.723.402-.964.24-.24.642-.401.964-.401h3.132c.402 0 .723.16.964.401.24.241.401.563.401.964v31.163c0 .322-.16.723-.401.964a1.482 1.482 0 0 1-.964.402h-3.132a1.33 1.33 0 0 1-.964-.402 1.33 1.33 0 0 1-.402-.964zm-18.473 17.991v13.172c0 .322-.16.723-.401.964a1.482 1.482 0 0 1-.964.402h-3.132a1.33 1.33 0 0 1-.964-.402 1.33 1.33 0 0 1-.402-.964v-31.163c0-.321.16-.723.402-.964.24-.24.642-.401.964-.401h11.967c.883 0 1.687.16 2.49.482.723.321 1.365.803 1.927 1.365.563.562.964 1.285 1.205 2.008.321.723.402 1.526.402 2.33v4.738a9.95 9.95 0 0 1-.241 2.169 6.817 6.817 0 0 1-.723 1.767c-.321.481-.723.963-1.285 1.285a5.466 5.466 0 0 1-1.928.642c.803.08 1.606.321 2.33.723.562.402 1.124.884 1.445 1.526.402.643.643 1.365.723 2.088.16.804.16 1.526.16 2.33v9.075c0 .322-.16.723-.401.964a1.482 1.482 0 0 1-.964.402h-2.972a1.33 1.33 0 0 1-.963-.402 1.33 1.33 0 0 1-.402-.964v-10.04a3.5 3.5 0 0 0-.883-2.328c-.643-.563-1.526-.884-2.41-.884h-4.98zm8.112-11.324c0-.804-.32-1.687-.883-2.25a3.5 3.5 0 0 0-2.33-.883h-4.899v9.558h4.98c.884 0 1.687-.241 2.33-.883a3.5 3.5 0 0 0 .883-2.33V273.4zm-28.352 26.585c-1.365 0-2.65-.161-3.935-.643-1.125-.402-2.249-.964-3.213-1.767a8.351 8.351 0 0 1-2.088-2.891c-.562-1.285-.803-2.65-.803-4.016v-16.706c0-1.366.24-2.73.803-4.016a8.351 8.351 0 0 1 2.088-2.891c.964-.804 2.008-1.366 3.213-1.767a13.42 13.42 0 0 1 7.951 0c1.205.401 2.25.963 3.213 1.767a8.351 8.351 0 0 1 2.088 2.891c.562 1.285.803 2.65.803 4.016v16.786c0 1.366-.24 2.73-.803 4.016a8.351 8.351 0 0 1-2.088 2.891c-.964.804-2.008 1.366-3.213 1.767-1.365.402-2.73.643-4.016.563zm0-5.06c1.125.08 2.25-.402 3.133-1.205.723-.803 1.124-1.928 1.124-3.052v-16.786a3.928 3.928 0 0 0-1.124-3.053 4.57 4.57 0 0 0-6.185 0c-.722.804-1.124 1.928-1.124 3.053v16.786a3.928 3.928 0 0 0 1.124 3.052c.723.883 1.848 1.285 3.052 1.205zm-20.24-15.743v-12.449c0-.321.161-.723.402-.964.241-.24.643-.401.964-.401h3.132c.402 0 .723.16.964.401.241.241.402.563.402.964v31.163c0 .322-.161.723-.402.964a1.482 1.482 0 0 1-.964.402h-3.132a1.33 1.33 0 0 1-.964-.402 1.33 1.33 0 0 1-.401-.964v-13.734h-8.755v13.734c0 .322-.16.723-.402.964a1.482 1.482 0 0 1-.963.402h-3.133a1.33 1.33 0 0 1-.964-.402 1.33 1.33 0 0 1-.401-.964v-31.163c0-.321.16-.723.401-.964.241-.24.643-.401.964-.401h3.133c.401 0 .722.16.963.401.241.241.402.563.402.964v12.45zm-18.874-13.734c.321 0 .723.16.964.402.24.24.401.642.401.964v2.248c0 .402-.16.723-.401.964a1.33 1.33 0 0 1-.964.402h-5.462v27.468c0 .322-.16.723-.401.964a1.482 1.482 0 0 1-.964.402h-3.132a1.33 1.33 0 0 1-.964-.402 1.33 1.33 0 0 1-.402-.964v-27.468h-5.461c-.322 0-.723-.16-.964-.402a1.482 1.482 0 0 1-.402-.963v-2.25c0-.401.16-.722.402-.963a1.33 1.33 0 0 1 .964-.402zm-26.585 1.285c0-.321.16-.723.402-.964.24-.24.642-.401.963-.401h3.052c.402 0 .723.16.964.401.241.241.402.563.402.964v23.935c0 1.365-.241 2.73-.803 4.016a7.638 7.638 0 0 1-2.169 2.891 10.136 10.136 0 0 1-3.132 1.767c-1.285.402-2.57.643-3.936.643-1.365 0-2.65-.161-3.935-.643-1.125-.402-2.25-.964-3.133-1.767a8.351 8.351 0 0 1-2.088-2.891 8.704 8.704 0 0 1-.723-4.016v-23.935c0-.321.16-.723.402-.964.24-.24.642-.401.964-.401h3.052c.401 0 .722.16.963.401.241.241.402.563.402.964v23.935a3.928 3.928 0 0 0 1.124 3.052 4.57 4.57 0 0 0 6.185 0 3.927 3.927 0 0 0 1.124-3.052zm-24.979-1.285c.241 0 .482.08.723.241.16.16.321.402.402.643l7.228 31.163c.08.16.08.321.08.482v.321c0 .562-.481 1.044-1.043.964h-3.534c-.241 0-.563-.08-.723-.322-.16-.24-.322-.481-.322-.722l-1.445-6.024h-9.156l-1.446 6.024c-.08.24-.16.562-.321.722-.161.241-.402.322-.723.322h-3.534c-.562 0-1.044-.402-1.044-.964v-.321c0-.16.08-.322.08-.482l7.229-31.163c.08-.241.16-.482.401-.643a1.3 1.3 0 0 1 .723-.24zm-3.212 5.944-3.454 15.822h6.988zm184.167-26.023c0 .803-.16 1.606-.562 2.33-.402.722-.884 1.445-1.446 2.007-.643.562-1.365 1.044-2.088 1.365a6.545 6.545 0 0 1-2.49.482h-12.048a1.33 1.33 0 0 1-.963-.401 1.33 1.33 0 0 1-.402-.964v-31.163c0-.321.16-.723.402-.964.24-.24.642-.401.963-.401h12.048c.883 0 1.687.16 2.49.481.803.322 1.445.804 2.088 1.366s1.124 1.205 1.446 2.008c.401.723.562 1.526.562 2.329zm-5.863-19.357a3.457 3.457 0 0 0-.803-2.49c-.563-.562-1.446-.883-2.25-.883h-5.14v24.095h5.14a2.899 2.899 0 0 0 2.25-.803c.562-.723.883-1.606.803-2.49zm-35.741 25.541a1.33 1.33 0 0 1-.964-.401 1.33 1.33 0 0 1-.402-.964v-31.163c0-.321.16-.723.402-.964.24-.24.642-.401.964-.401h14.698c.321 0 .723.16.963.401.241.241.402.643.402.964v2.33c0 .4-.16.722-.402.963a1.33 1.33 0 0 1-.963.401h-10.2v8.434h8.754c.321 0 .723.16.964.401.24.241.401.643.401.964v2.25c0 .4-.16.722-.401.963a1.33 1.33 0 0 1-.964.401h-8.755v10.281h10.442c.32 0 .722.16.963.402.241.24.402.642.402.963v2.33c0 .401-.16.723-.402.963a1.33 1.33 0 0 1-.963.402h-14.94zm-13.815-32.448c0-.321.16-.723.402-.964.24-.24.642-.401.963-.401h2.812c.401 0 .722.16.963.401.241.241.402.563.402.964v31.083c0 .321-.16.723-.402.964a1.482 1.482 0 0 1-.963.401h-3.695c-.402.08-.723-.08-.964-.401a2.714 2.714 0 0 1-.482-.964l-9.798-21.123v21.123c0 .321-.161.723-.402.964a1.482 1.482 0 0 1-.964.401h-2.81a1.33 1.33 0 0 1-.965-.401 1.33 1.33 0 0 1-.401-.964v-31.163c0-.321.16-.723.401-.964.241-.24.643-.401.964-.401h3.695c.401-.08.723.08.963.401.241.321.402.643.563.964l9.798 21.123zm-29.075-.08c0-.321.16-.723.402-.964.24-.24.642-.401.964-.401h3.132c.402 0 .723.16.964.401.24.241.401.562.401.964v31.163c0 .321-.16.723-.401.964a1.482 1.482 0 0 1-.964.401h-3.132a1.33 1.33 0 0 1-.964-.401 1.33 1.33 0 0 1-.402-.964zm-24.336 32.528a1.33 1.33 0 0 1-.964-.401 1.33 1.33 0 0 1-.401-.964v-31.163c0-.321.16-.723.401-.964.241-.24.643-.401.964-.401h11.405c.884 0 1.687.16 2.49.481a5.54 5.54 0 0 1 1.928 1.446c.562.562.963 1.285 1.204 2.008a5.67 5.67 0 0 1 .482 2.249v4.417c0 1.125-.24 2.25-.803 3.213-.642.964-1.526 1.687-2.65 2.088.803.161 1.526.402 2.168.884a6.176 6.176 0 0 1 1.446 1.446 7.38 7.38 0 0 1 .723 1.847c.16.642.24 1.285.24 1.927v5.542c0 .803-.16 1.526-.4 2.25-.242.722-.724 1.445-1.206 2.007a8.646 8.646 0 0 1-1.927 1.446c-.803.401-1.687.562-2.57.562zm12.128-25.862c0-.803-.24-1.606-.883-2.249a3.5 3.5 0 0 0-2.33-.883h-4.658v9.076h4.658c1.607.08 3.052-1.125 3.133-2.731v-3.213zm-7.79 21.043h4.899c.883.08 1.686-.24 2.329-.883a3.5 3.5 0 0 0 .883-2.33v-4.176c.08-.883-.24-1.686-.883-2.329a3.5 3.5 0 0 0-2.33-.884h-4.899zm-26.746 4.82c-.322 0-.723-.161-.964-.402-.241-.241-.402-.562-.482-.964l-5.783-25.782v25.782c0 .321-.16.723-.401.964a1.482 1.482 0 0 1-.964.401h-2.57a1.33 1.33 0 0 1-.964-.401 1.33 1.33 0 0 1-.402-.964v-31.163c0-.321.16-.723.402-.964.24-.24.642-.401.964-.401h6.104c.321 0 .723.16.964.401.24.241.401.562.481.964l4.498 20.641 4.498-20.641c.08-.321.24-.643.402-.884.24-.24.562-.401.883-.401h6.104c.402 0 .723.16.964.401.24.241.402.563.402.964v31.163c0 .322-.161.723-.402.964a1.482 1.482 0 0 1-.964.402h-2.57a1.33 1.33 0 0 1-.964-.402 1.33 1.33 0 0 1-.401-.964v-25.781l-5.783 25.781c-.08.322-.241.643-.482.964-.241.241-.562.402-.884.402h-1.686zm-28.754.722c-1.365 0-2.65-.16-3.935-.642-1.125-.402-2.25-.964-3.133-1.767a8.351 8.351 0 0 1-2.088-2.892 8.704 8.704 0 0 1-.723-4.016v-16.706c0-1.365.241-2.73.723-4.015a8.351 8.351 0 0 1 2.088-2.892 10.136 10.136 0 0 1 3.133-1.767 13.421 13.421 0 0 1 7.951 0c1.205.402 2.249.964 3.213 1.767a8.351 8.351 0 0 1 2.088 2.892c.562 1.285.803 2.65.803 4.015v16.787c0 1.365-.24 2.73-.803 4.016a8.351 8.351 0 0 1-2.088 2.891c-.964.803-2.008 1.365-3.213 1.767a9.946 9.946 0 0 1-4.016.562zm0-5.06c1.125.08 2.249-.401 3.133-1.205.722-.803 1.124-1.927 1.124-3.052v-16.786a3.928 3.928 0 0 0-1.124-3.052 4.57 4.57 0 0 0-6.185 0c-.723.803-1.124 1.928-1.124 3.052v16.867a3.928 3.928 0 0 0 1.124 3.052 3.927 3.927 0 0 0 3.052 1.124zm-20.24-20.882a3.928 3.928 0 0 0-1.124-3.052 4.072 4.072 0 0 0-5.783 0c-.723.803-1.124 1.927-1.124 3.052v16.706a3.928 3.928 0 0 0 1.124 3.052c.723.803 1.847 1.205 2.891 1.205 1.125.08 2.169-.402 2.892-1.205.723-.803 1.124-1.928 1.124-3.052v-.643c0-.321.16-.723.402-.964.24-.24.642-.401.964-.401h3.052c.401 0 .723.16.963.401.241.241.402.563.402.964v.643c0 1.365-.24 2.73-.803 4.016a8.351 8.351 0 0 1-2.088 2.891c-.884.803-2.008 1.365-3.133 1.767-2.49.803-5.22.803-7.71 0-1.125-.402-2.25-.964-3.133-1.767a8.351 8.351 0 0 1-2.088-2.891 8.704 8.704 0 0 1-.723-4.016v-16.706c0-1.366.241-2.731.723-4.016a8.351 8.351 0 0 1 2.088-2.891c.884-.804 2.008-1.366 3.133-1.767 2.49-.804 5.22-.804 7.71 0 1.125.401 2.169.963 3.133 1.767a8.351 8.351 0 0 1 2.088 2.89c.562 1.286.803 2.651.803 4.017v.642c0 .322-.16.723-.402.964a1.482 1.482 0 0 1-.963.402h-3.052a1.33 1.33 0 0 1-.964-.402 1.33 1.33 0 0 1-.402-.964zm181.276-23.854c0 .32-.16.722-.402.963a1.482 1.482 0 0 1-.963.402h-13.333a1.33 1.33 0 0 1-.964-.402 1.33 1.33 0 0 1-.401-.963v-31.163c0-.322.16-.723.401-.964.241-.241.643-.402.964-.402h3.132c.402 0 .723.16.964.402.241.24.402.562.402.964v27.468h8.835c.401 0 .723.16.963.402.241.24.402.562.402.963zm-32.367-32.45c.241 0 .482.08.723.241.16.161.321.402.402.643l7.228 31.163c.08.16.08.321.08.482v.321c0 .241-.08.482-.32.723-.242.241-.483.321-.804.321h-3.454c-.24 0-.481-.08-.722-.321-.161-.24-.322-.482-.322-.723l-1.445-6.024h-9.157l-1.445 6.024c-.08.241-.16.562-.402.723-.16.241-.401.321-.723.321h-3.453c-.322 0-.563-.08-.804-.321-.16-.16-.24-.402-.32-.723v-.321c0-.16.08-.321.08-.482l7.228-31.163c.08-.482.562-.884 1.125-.884zm-3.212 5.944-3.454 15.822h6.988zm-32.85 13.333v13.172c0 .32-.16.722-.402.963a1.482 1.482 0 0 1-.964.402H253a1.33 1.33 0 0 1-.964-.402 1.33 1.33 0 0 1-.401-.963v-31.163c0-.322.16-.723.401-.964.241-.241.643-.402.964-.402h11.967c.884 0 1.687.16 2.49.482.723.321 1.366.803 1.928 1.365.562.563.964 1.286 1.205 2.008.32.723.401 1.526.401 2.33v4.738c0 .723-.08 1.446-.24 2.169a6.817 6.817 0 0 1-.724 1.767c-.321.482-.723.964-1.285 1.285a5.466 5.466 0 0 1-1.927.642c.803.08 1.606.322 2.329.723.562.402 1.124.884 1.446 1.526a4.64 4.64 0 0 1 .722 2.089c.161.803.161 1.526.161 2.329v9.076c0 .32-.16.722-.402.963a1.482 1.482 0 0 1-.963.402h-3.133a1.33 1.33 0 0 1-.964-.402 1.33 1.33 0 0 1-.401-.963v-10.04c0-.884-.321-1.687-.964-2.33a3.659 3.659 0 0 0-2.33-.883zm8.112-11.325c0-.803-.241-1.606-.884-2.249a3.5 3.5 0 0 0-2.329-.884h-4.98v9.558h4.98c1.607.08 3.052-1.124 3.133-2.73v-3.695zm-33.492 26.585c-1.366 0-2.65-.16-3.936-.643-1.124-.401-2.249-.964-3.213-1.767a8.351 8.351 0 0 1-2.088-2.891c-.562-1.285-.803-2.65-.803-4.016v-16.706c0-1.365.24-2.73.803-4.016a8.351 8.351 0 0 1 2.088-2.891c.964-.803 2.008-1.366 3.213-1.767a13.421 13.421 0 0 1 7.951 0c1.125.401 2.25.964 3.133 1.767a8.351 8.351 0 0 1 2.088 2.891c.562 1.285.803 2.65.803 4.016v16.706c0 1.365-.24 2.73-.803 4.016a8.351 8.351 0 0 1-2.088 2.891c-.964.803-2.008 1.446-3.133 1.767-1.365.482-2.65.723-4.015.643zm0-4.98c1.124.08 2.329-.401 3.132-1.205.723-.803 1.124-1.927 1.124-3.052v-16.786a3.928 3.928 0 0 0-1.124-3.052 4.57 4.57 0 0 0-6.184 0c-.723.803-1.125 1.928-1.125 3.052v16.706a3.928 3.928 0 0 0 1.125 3.052c.722.884 1.847 1.285 3.052 1.285zm-29.557 4.257a1.33 1.33 0 0 1-.964-.402 1.33 1.33 0 0 1-.402-.963v-14.297l-8.433-16.706c-.08-.08-.08-.16-.08-.24v-.242c0-.562.321-.964.883-1.044h3.213c.321 0 .643.08.884.241.32.321.642.723.803 1.205l5.702 11.003 5.703-11.003c.16-.482.482-.884.803-1.205.24-.16.562-.321.883-.24h3.052c.322 0 .563.08.804.32.16.161.24.482.24.723v.241c0 .08 0 .16-.08.241l-8.433 16.706v14.297c0 .32-.16.722-.402.963a1.482 1.482 0 0 1-.963.402zm-21.605-33.814c.562 0 .963.322 1.124.884l7.229 31.163c.08.16.08.321.08.482v.321c0 .241-.08.482-.321.723s-.482.321-.804.321h-3.534c-.24 0-.481-.08-.722-.321-.161-.24-.322-.482-.402-.723l-1.446-6.024h-9.156l-1.446 6.024c-.08.241-.16.562-.32.723-.161.241-.402.321-.724.321h-3.534c-.32 0-.562-.08-.722-.321a1.018 1.018 0 0 1-.322-.723v-.321c0-.16.08-.321.08-.482l7.23-31.163c.08-.241.16-.482.4-.643.242-.16.483-.24.724-.24zm-3.213 5.944-3.454 15.822h6.988zm-33.733 27.87c-.322 0-.723-.16-.964-.402-.241-.24-.402-.562-.482-.963l-5.783-25.782v25.782c0 .32-.16.722-.401.963a1.482 1.482 0 0 1-.964.402h-2.57a1.33 1.33 0 0 1-.964-.402 1.33 1.33 0 0 1-.402-.963v-31.163c0-.322.16-.723.402-.964a1.48 1.48 0 0 1 .964-.402h6.104c.321 0 .723.16.963.402.241.24.402.562.482.964l4.498 20.641 4.498-20.641c.08-.322.24-.643.482-.964a1.33 1.33 0 0 1 .964-.402h6.104c.401 0 .723.16.964.402.24.24.401.562.401.964v31.163c0 .32-.16.722-.401.963a1.482 1.482 0 0 1-.964.402h-2.57a1.33 1.33 0 0 1-.964-.402 1.33 1.33 0 0 1-.402-.963v-25.782l-5.783 25.782c-.08.32-.24.642-.482.963a1.33 1.33 0 0 1-.963.402z"/>
</svg>
